<svg width="60" height="40" viewBox="0 0 60 40" fill="none" xmlns="http://www.w3.org/2000/svg">
<g id="Converter">
<rect id="bg" y="5" width="60" height="27.75" rx="13.875" fill="black"/>
<g id="Moon" filter="url(#filter0_d_3_2799)">
<path id="Moon_2" fill-rule="evenodd" clip-rule="evenodd" d="M14.4777 10.8594C13.0922 12.879 12.691 15.524 13.635 17.9834L13.7956 18.4018C15.3202 22.3734 19.7757 24.3571 23.7472 22.8325C24.0739 22.7071 24.3872 22.5619 24.6861 22.3987C23.8342 23.6405 22.6102 24.6459 21.0981 25.2263C17.1265 26.7509 12.671 24.7672 11.1465 20.7956L10.9859 20.3772C9.58673 16.7323 11.1424 12.6799 14.4777 10.8594Z" fill="#FFD914"/>
<path id="Star 1" d="M18.7495 14.75L19.2547 16.3047L20.8894 16.3047L19.5669 17.2656L20.072 18.8203L18.7495 17.8594L17.427 18.8203L17.9322 17.2656L16.6096 16.3047L18.2444 16.3047L18.7495 14.75Z" fill="#FFD914"/>
</g>
<g id="Sun">
<rect id="Rectangle 11" x="39.3511" y="12.8516" width="10.5469" height="10.5469" rx="5.27344" fill="#F9FE1F"/>
<line id="Line 5" x1="45.1245" y1="9.25" x2="45.1245" y2="11.7656" stroke="white" stroke-linecap="round"/>
<line id="Line 6" x1="45.1245" y1="24.4844" x2="45.1245" y2="27" stroke="white" stroke-linecap="round"/>
<line id="Line 7" x1="35.7495" y1="18.2109" x2="38.2651" y2="18.2109" stroke="white" stroke-linecap="round"/>
<line id="Line 8" x1="50.9839" y1="17.625" x2="53.4995" y2="17.625" stroke="white" stroke-linecap="round"/>
<line id="Line 9" x1="49.312" y1="13.4584" x2="51.0908" y2="11.6796" stroke="white" stroke-linecap="round"/>
<line id="Line 11" x1="37.7144" y1="11.6797" x2="39.4932" y2="13.4585" stroke="white" stroke-linecap="round"/>
<line id="Line 10" x1="37.5933" y1="24.0053" x2="39.3721" y2="22.2265" stroke="white" stroke-linecap="round"/>
<line id="Line 12" x1="50.6051" y1="22.2266" x2="52.3839" y2="24.0054" stroke="white" stroke-linecap="round"/>
</g>
<rect id="Slider" x="34.5" y="8" width="21" height="21" rx="10.5" fill="#888888"/>
</g>
<defs>
<filter id="filter0_d_3_2799" x="0.472168" y="0.859375" width="38.2139" height="38.8806" filterUnits="userSpaceOnUse" color-interpolation-filters="sRGB">
<feFlood flood-opacity="0" result="BackgroundImageFix"/>
<feColorMatrix in="SourceAlpha" type="matrix" values="0 0 0 0 0 0 0 0 0 0 0 0 0 0 0 0 0 0 127 0" result="hardAlpha"/>
<feOffset dx="2" dy="2"/>
<feGaussianBlur stdDeviation="6"/>
<feComposite in2="hardAlpha" operator="out"/>
<feColorMatrix type="matrix" values="0 0 0 0 1 0 0 0 0 1 0 0 0 0 1 0 0 0 0.25 0"/>
<feBlend mode="normal" in2="BackgroundImageFix" result="effect1_dropShadow_3_2799"/>
<feBlend mode="normal" in="SourceGraphic" in2="effect1_dropShadow_3_2799" result="shape"/>
</filter>
</defs>
</svg>
